<?xml version="1.0" encoding="UTF-8" standalone="no"?>
<!-- Created with Inkscape (http://www.inkscape.org/) -->

<svg
   width="210mm"
   height="297mm"
   viewBox="0 0 210 297"
   version="1.1"
   id="svg5"
   inkscape:version="1.1.2 (0a00cf5339, 2022-02-04, custom)"
   sodipodi:docname="wite.svg"
   xmlns:inkscape="http://www.inkscape.org/namespaces/inkscape"
   xmlns:sodipodi="http://sodipodi.sourceforge.net/DTD/sodipodi-0.dtd"
   xmlns="http://www.w3.org/2000/svg"
   xmlns:svg="http://www.w3.org/2000/svg">
  <sodipodi:namedview
     id="namedview7"
     pagecolor="#505050"
     bordercolor="#eeeeee"
     borderopacity="1"
     inkscape:pageshadow="0"
     inkscape:pageopacity="0"
     inkscape:pagecheckerboard="0"
     inkscape:document-units="mm"
     showgrid="false"
     inkscape:zoom="0.75968027"
     inkscape:cx="424.5207"
     inkscape:cy="444.26585"
     inkscape:window-width="1920"
     inkscape:window-height="1018"
     inkscape:window-x="0"
     inkscape:window-y="38"
     inkscape:window-maximized="1"
     inkscape:current-layer="layer1" />
  <defs
     id="defs2" />
  <g
     inkscape:label="Layer 1"
     inkscape:groupmode="layer"
     id="layer1">
    <path
       style="fill:#000000;stroke-width:0.264583"
       id="path927"
       d="m 33.428974,103.4536 c 1.251709,-1.67427 2.546194,-3.31747 3.843988,-4.956415 1.223203,-1.50581 2.478662,-2.988498 3.907422,-4.303781 0.432896,-0.351854 0.601028,-0.506968 1.056294,-0.809167 0.150167,-0.09968 0.61826,-0.370788 0.462394,-0.280284 -5.303372,3.079348 -3.534183,1.804432 -2.174267,1.463402 1.384652,-0.143949 2.041242,1.266331 2.608355,2.287614 1.413513,2.953811 1.926122,6.208941 2.34641,9.424931 0.421209,3.65439 0.472921,7.33584 0.52446,11.00973 0.02442,3.4308 -0.0066,6.86165 -7.94e-4,10.29245 7.94e-4,3.37077 -0.01839,6.74157 -0.008,10.11232 0.0054,3.32632 -0.0084,6.65263 -0.0072,9.97894 0.01132,3.12627 -0.145963,6.25001 -0.143256,9.37605 -0.02812,2.69853 0.311155,5.36206 0.921575,7.98528 0.549654,2.08025 1.492965,4.01347 2.462308,5.92266 0.737372,1.46954 1.66502,2.77436 2.919889,3.83619 1.622843,1.13158 3.171618,1.33662 5.093443,1.11531 1.940338,-0.45907 3.774874,-1.2647 5.471882,-2.30574 5.10938,-3.13437 3.558905,-1.97448 6.578113,-4.47107 3.720717,-3.19328 6.523384,-7.20956 9.071221,-11.35415 2.58689,-4.37929 4.410303,-9.14379 6.043758,-13.94327 1.475328,-4.5393 2.386261,-9.22943 3.204676,-13.92289 0.700717,-4.02295 1.217938,-8.07494 1.624774,-12.13728 0.286523,-3.02757 0.371896,-6.0701 0.424247,-9.10939 0.02957,-1.74675 0.03314,-3.49379 0.04134,-5.24074 0.0046,-0.7727 0.01077,-1.54539 0.01397,-2.31809 -0.0074,-1.923971 0.484307,-1.687743 -3.622444,1.55452 -0.179364,0.14161 -0.04824,0.4545 -0.07236,0.68175 -0.329483,2.96948 -0.517443,5.95318 -0.755835,8.93102 -0.42608,5.2166 -0.936575,10.42568 -1.405358,15.63846 -0.487159,4.95676 -0.73618,9.93118 -0.685007,14.91102 0.114687,4.48657 0.425331,8.96501 0.736865,13.44131 0.293052,3.95003 0.592278,7.89961 0.926796,11.84637 0.214902,2.64941 0.490849,5.29444 1.143031,7.87542 0.47108,1.6704 1.303931,3.10219 2.554365,4.2931 1.17399,0.93001 2.45532,0.9761 3.862839,0.68437 0.982089,-0.38534 1.161024,-0.41531 2.117511,-0.97235 1.486469,-0.8657 2.980515,-1.72084 4.428284,-2.64981 1.412527,-0.90635 2.636627,-2.2234 3.822367,-3.39266 3.01521,-3.1779 5.19294,-6.94994 7.22171,-10.79691 2.24123,-4.49102 4.11546,-9.14726 5.70202,-13.90545 1.32592,-4.02476 2.05807,-8.20242 2.75312,-12.37141 0.64537,-4.06966 1.08111,-8.16585 1.50616,-12.26276 0.38685,-3.54489 0.51514,-7.11031 0.6846,-10.67019 0.1109,-2.26845 0.18907,-4.53845 0.23397,-6.80914 0.0182,-0.90598 0.0311,-1.81205 0.0358,-2.7182 0.002,-0.48351 0.001,-0.96704 0.001,-1.45055 -2.6e-4,-0.46516 -2.6e-4,-0.93031 -5.3e-4,-1.39547 0,0 -3.53866,1.80304 -3.53866,1.80304 v 0 c -4e-5,0.46533 -1.6e-4,0.93065 1.7e-4,1.39598 5.3e-4,0.48249 0.002,0.96499 0.006,1.44747 0.008,0.89513 0.0185,1.79026 0.0161,2.68544 -0.0123,2.25149 -0.0545,4.50276 -0.1495,6.75243 -0.15085,3.54613 -0.28193,7.09601 -0.64885,10.62811 -0.41564,4.09019 -0.87393,8.17552 -1.51014,12.23842 -0.69216,4.14856 -1.45386,8.29769 -2.75353,12.30718 -1.57444,4.74864 -3.44273,9.39792 -5.73219,13.85125 -2.04229,3.8357 -4.25978,7.58842 -7.325181,10.71429 -1.111448,1.0692 -1.402717,1.39655 -2.597253,2.36056 -0.422505,0.34097 -1.830877,1.09212 -1.299149,0.98242 0.794956,-0.16401 1.42535,-0.77714 2.14294,-1.1565 0.663895,-0.35098 -2.404825,1.34829 -2.010733,1.0161 -1.296416,0.34642 -2.483956,0.44293 -3.633967,-0.37778 -1.235983,-1.10214 -2.029593,-2.47766 -2.48108,-4.0762 -0.65735,-2.54839 -0.962679,-5.15827 -1.195618,-7.7766 -0.3483,-3.93708 -0.668663,-7.87601 -0.968899,-11.81706 -0.304911,-4.46781 -0.624843,-8.93575 -0.74191,-13.4136 -0.03649,-4.95953 0.183772,-9.91321 0.649983,-14.85209 0.485349,-5.22852 0.992799,-10.45488 1.487755,-15.68239 0.26633,-2.99987 0.493641,-6.00667 0.91258,-8.99004 0.03417,-0.22542 0.326734,-0.71763 0.102526,-0.67626 -3.74214,0.69053 -3.463174,0.23598 -3.454416,1.97477 0.0053,0.76625 0.01601,1.53244 0.02529,2.29865 0.01757,1.73363 0.03011,3.46731 0.02273,5.20106 -0.02982,3.01963 -0.0945,6.04104 -0.376791,9.04964 -0.387583,4.04541 -0.896482,8.07904 -1.582793,12.08542 -0.81189,4.67624 -1.73551,9.3444 -3.214338,13.86323 -1.632588,4.77894 -3.461081,9.51736 -6.068057,13.86303 -2.564458,4.12905 -5.410049,8.10659 -9.159894,11.2575 -4.78205,3.85279 -0.356243,0.0454 -0.169301,0.69298 0.159369,0.55208 -0.978369,0.60459 -1.48622,0.87344 -1.210858,0.64102 -2.508745,1.11208 -3.821483,1.49313 -1.834097,0.28543 -3.298084,0.1908 -4.88837,-0.86549 -1.236073,-1.00478 -2.135037,-2.27255 -2.85469,-3.69231 -0.976546,-1.86845 -1.914234,-3.77104 -2.449825,-5.8211 -0.613738,-2.58907 -0.921909,-5.22423 -0.915932,-7.88824 0.0052,-3.12548 0.154215,-6.24809 0.13821,-9.37365 0.0013,-3.32405 -0.01278,-6.64809 -0.0059,-9.97215 0.01233,-3.37059 -0.0034,-6.74124 0.0081,-10.11185 0.01627,-3.42998 0.0094,-6.86017 -0.01453,-10.2901 -0.03254,-3.68585 -0.135863,-7.37739 -0.558493,-11.04228 -0.424944,-3.26963 -0.924301,-6.578045 -2.318761,-9.599391 -0.609012,-1.157795 -1.312433,-2.667624 -2.811822,-2.736132 -2.357554,0.235301 -4.308866,2.03849 -6.107819,3.483125 -1.392147,1.345539 -2.634842,2.830497 -3.845517,4.339638 -1.309923,1.66853 -2.629062,3.33001 -3.924242,5.00998 0,0 3.627657,-1.57212 3.627657,-1.57212 z" />
    <path
       style="fill:#000000;stroke-width:0.264583"
       id="path929"
       d="m 117.28765,153.73104 c 1.55437,-1.36203 3.11606,-2.71641 4.70636,-4.03658 2.12504,-1.76694 4.31874,-3.44354 6.67261,-4.89368 -0.69828,0.41545 -1.43807,0.76796 -2.09483,1.24634 -0.35734,0.2603 0.78936,-0.39863 1.1894,-0.58683 1.40549,-0.66118 2.84595,-1.14868 4.33339,-1.58505 1.59899,-0.46269 3.22289,-0.667 4.87873,-0.52038 1.83042,0.18059 3.35758,1.04964 4.79704,2.13146 1.83625,1.50913 3.15177,3.44597 4.20214,5.55203 1.19066,2.61895 1.75773,5.44455 2.18211,8.27202 0.47491,3.40309 0.44448,6.83679 0.26616,10.25862 -0.28321,4.25174 -0.85091,8.47449 -1.58753,12.66913 -0.59061,3.55533 -1.53146,7.034 -2.52971,10.49211 -0.25348,0.93857 -0.55719,1.86213 -0.85256,2.78797 0,0 3.533,-1.6701 3.533,-1.6701 v 0 c 0.2681,-0.9182 0.5391,-1.83572 0.77818,-2.76207 0.95164,-3.46141 1.84794,-6.94164 2.43214,-10.48729 0.74332,-4.20819 1.2762,-8.45162 1.58097,-12.71507 0.21163,-3.45315 0.23016,-6.92113 -0.24724,-10.35669 -0.44033,-2.86502 -1.01178,-5.73341 -2.21294,-8.39095 -1.0718,-2.16001 -2.41085,-4.14668 -4.2726,-5.71511 -1.46141,-1.1357 -3.00432,-2.09379 -4.88283,-2.33133 -1.69456,-0.19921 -3.34862,-0.0442 -4.99621,0.4201 -3.6116,1.04731 -6.92542,2.55668 -10.07771,4.68037 -2.33712,1.48662 -4.52858,3.17511 -6.65886,4.94416 -1.61307,1.34865 -3.20941,2.71743 -4.79949,4.09305 0,0 3.66028,-1.49623 3.66028,-1.49623 z" />
    <path
       style="fill:#000000;stroke-width:0.264583"
       id="path931"
       d="m 110.79244,124.73796 c 2.87865,-0.59521 5.82202,-0.73978 8.75071,-0.8522 0,0 2.97534,-2.17474 2.97534,-2.17474 v 0 c -2.86782,0.0536 -5.74381,0.17654 -8.57855,0.64869 0,0 -3.1475,2.37825 -3.1475,2.37825 z" />
    <path
       style="fill:#000000;stroke-width:0.264583"
       id="path933"
       d="m 108.82112,125.22263 c 1.60226,-0.40732 3.22388,-0.73438 4.84757,-1.04355 2.58318,-0.44426 5.20977,-0.52547 7.82506,-0.54286 4.63744,0.0763 9.26716,0.069 13.90003,-0.15689 3.13378,-0.18477 6.24612,-0.61584 9.35536,-1.03319 0,0 3.01279,-2.25462 3.01279,-2.25462 v 0 c -3.1194,0.46792 -6.24739,0.90401 -9.39733,1.10677 -4.59477,0.23273 -9.18799,0.24758 -13.78661,0.0961 -2.6079,-0.006 -5.22453,0.0535 -7.80823,0.44175 -1.6069,0.30242 -3.20977,0.62253 -4.80506,0.98129 0,0 -3.14358,2.4052 -3.14358,2.4052 z" />
    <path
       style="fill:#000000;stroke-width:0.264583"
       id="path995"
       d="m 86.793762,176.91457 c 0.623647,1.15127 1.331148,2.25325 2.036617,3.3553 0.535408,0.91869 1.27386,1.65524 2.112788,2.29317 0.765117,0.43729 1.574713,0.79679 2.370174,1.17849 1.964741,0.91786 3.881541,1.93905 5.804064,2.94227 2.282505,1.19131 4.537055,2.43442 6.836275,3.59359 1.58034,0.75121 3.06887,1.62746 4.44012,2.71511 1.33712,1.07866 2.77101,2.04435 4.21913,2.96894 0.99403,0.53846 2.01488,1.08389 3.09659,1.43054 0.58034,0.18598 1.33338,0.32433 1.91756,0.44625 2.00597,0.42792 4.03683,0.7146 6.06457,1.01459 1.77489,0.29596 3.57162,0.40542 5.36468,0.52627 1.68735,0.13819 3.37901,0.17136 5.07078,0.20153 0.97782,0.0182 1.95582,0.0242 2.93377,0.0287 0.6395,-0.002 1.27899,-2.7e-4 1.91848,0.002 0.46426,0.008 0.91771,0.0341 1.36197,-0.11531 1.97686,-0.98782 3.4566,-1.61529 4.65221,-3.22966 0.5,-0.68467 0.79177,-1.44052 0.96697,-2.26281 0.13469,-0.92883 0.38151,-1.83479 0.5852,-2.74952 0,0 -3.5278,1.70257 -3.5278,1.70257 v 0 c -0.19689,0.91157 -0.41559,1.81829 -0.58309,2.73607 -0.2232,0.77373 -0.55849,1.49593 -1.06904,2.12593 -1.06178,1.25524 -3.66928,2.64689 2.07099,-0.79504 -0.39741,0.27112 -0.78195,0.2942 -1.25694,0.26218 -0.64359,0.003 -1.28718,0.007 -1.93078,0.007 -0.99449,0.008 -1.98899,0.0151 -2.98352,0.0138 -1.70115,-0.009 -3.4022,-0.051 -5.10053,-0.15384 -1.78403,-0.11886 -3.56568,-0.28107 -5.33928,-0.50869 -2.02618,-0.28269 -4.05005,-0.58971 -6.05733,-0.98682 -0.1523,-0.0341 -1.60896,-0.3556 -1.84894,-0.42637 -1.06912,-0.31525 -2.08026,-0.82768 -3.04638,-1.3732 -1.47202,-0.87064 -2.87685,-1.85415 -4.21544,-2.91848 -1.40281,-1.09369 -2.86542,-2.08075 -4.51825,-2.76133 -2.33345,-1.10581 -4.56619,-2.40272 -6.87984,-3.54845 -1.88079,-1.03146 -3.764609,-2.05757 -5.669985,-3.04261 -0.7654,-0.3995 -1.553308,-0.74372 -2.327103,-1.12268 -0.812181,-0.59964 -1.558287,-1.27222 -2.078903,-2.15129 -0.700148,-1.08124 -1.39442,-2.17285 -1.956675,-3.33365 0,0 -3.433112,1.93601 -3.433112,1.93601 z" />
    <path
       style="fill:#000000;stroke-width:0.264583"
       id="path999"
       d="m 88.926111,181.99227 c 0.06259,0.99648 -0.01461,1.98668 -0.110131,2.97767 -0.166801,1.21799 -0.411707,2.42105 -0.53785,3.64428 -0.142023,1.50027 -0.185883,3.00829 -0.09658,4.51242 0.1226,1.47764 0.366983,2.94038 0.589545,4.40513 0.238643,1.45683 0.425704,2.9225 0.71579,4.37032 0.249614,1.40219 0.802934,2.70573 1.445954,3.96647 0.937323,1.72038 1.953249,3.39569 3.01209,5.0435 0.872093,1.35882 1.895586,2.60139 3.00015,3.77502 1.189591,1.21432 2.496495,2.29601 3.840891,3.33216 1.48755,1.10697 3.10201,2.02074 4.74277,2.877 1.78405,0.9453 3.65991,1.65264 5.58517,2.24507 2.0326,0.60089 4.10161,1.05769 6.18212,1.4549 1.91684,0.34346 3.84963,0.58341 5.7901,0.74025 2.14575,0.15357 4.29751,0.14133 6.44668,0.0982 2.41934,-0.08 4.83546,-0.21393 7.24841,-0.40524 2.11574,-0.18044 4.22329,-0.45619 6.31986,-0.79111 1.02478,-0.14819 2.03622,-0.37238 3.0587,-0.53383 0.39902,-0.065 0.80224,-0.0894 1.20587,-0.0973 0,0 3.21115,-2.33732 3.21115,-2.33732 v 0 c -0.42044,-8e-4 -0.84187,0.004 -1.25882,0.0655 -1.05125,0.15789 -2.08217,0.42144 -3.13265,0.58392 -2.10969,0.36088 -4.23113,0.66433 -6.36251,0.8636 -2.40228,0.1874 -4.80757,0.30927 -7.21503,0.4079 -2.13296,0.0458 -4.26746,0.0497 -6.39772,-0.0878 -1.93379,-0.13919 -3.85622,-0.38002 -5.76795,-0.70468 -2.07676,-0.38192 -4.14404,-0.81251 -6.17129,-1.41066 -1.90441,-0.57703 -3.76141,-1.27538 -5.52768,-2.2008 -1.62882,-0.82837 -3.21828,-1.74243 -4.68964,-2.83048 -1.33778,-1.0109 -2.63197,-2.07776 -3.79998,-3.28475 -1.097722,-1.1478 -2.107888,-2.37628 -2.981957,-3.70459 -1.074103,-1.61905 -2.092124,-3.27963 -2.979373,-5.00924 -0.596291,-1.2458 -1.133173,-2.51887 -1.377706,-3.8873 -0.2813,-1.44208 -0.489159,-2.89608 -0.718482,-4.34705 -0.20556,-1.45588 -0.459102,-2.9061 -0.572386,-4.37355 -0.06852,-1.48835 -0.02593,-2.97796 0.137253,-4.45989 0.157641,-1.22338 0.403576,-2.43298 0.549169,-3.65805 0.09856,-1.01113 0.15159,-2.02061 0.143507,-3.037 0,0 -3.527443,1.79732 -3.527443,1.79732 z" />
    <path
       style="fill:#000000;stroke-width:0.264583"
       id="path1001"
       d="m 121.30062,96.14361 c 0.88348,-1.91548 2.13473,-3.627035 3.4011,-5.302638 0.70647,-0.947534 1.52077,-1.805046 2.30139,-2.690022 0,0 -3.5893,1.515843 -3.5893,1.515843 v 0 c -0.74954,0.872538 -1.50937,1.73808 -2.18369,2.671678 -1.27604,1.740254 -2.53543,3.498755 -3.5401,5.413925 0,0 3.6106,-1.608786 3.6106,-1.608786 z" />
  </g>
</svg>
