<?xml version="1.0" standalone="no"?>
<!DOCTYPE svg PUBLIC "-//W3C//DTD SVG 20010904//EN"
 "http://www.w3.org/TR/2001/REC-SVG-20010904/DTD/svg10.dtd">
<svg version="1.0" xmlns="http://www.w3.org/2000/svg"
 width="700.000000pt" height="700.000000pt" viewBox="0 0 700.000000 700.000000"
 preserveAspectRatio="xMidYMid meet">
<metadata>
Created by potrace 1.14, written by Peter Selinger 2001-2017
</metadata>
<g transform="translate(0.000000,700.000000) scale(0.100000,-0.100000)"
fill="#000000" stroke="none">
<path d="M5438 6917 c-70 -45 -193 -124 -273 -176 -80 -51 -148 -97 -151 -102
-5 -9 450 -239 472 -239 6 0 17 6 24 14 10 14 289 202 452 305 l67 43 -97 50
c-53 28 -157 81 -230 119 -73 38 -134 69 -135 69 -1 0 -59 -37 -129 -83z"/>
<path d="M10 6256 c0 -3 40 -61 90 -130 49 -69 90 -128 90 -131 0 -3 16 -27
35 -55 35 -49 188 -302 240 -395 15 -27 45 -81 67 -120 41 -75 418 -830 418
-838 0 -3 31 -70 69 -149 37 -79 96 -204 131 -278 34 -74 138 -288 231 -475
153 -311 209 -418 318 -620 21 -38 58 -106 81 -150 203 -379 259 -473 283
-481 12 -4 45 -17 72 -29 28 -12 115 -50 195 -84 80 -34 153 -66 164 -72 10
-6 22 -7 26 -2 4 4 23 76 43 158 20 83 71 276 113 430 42 154 78 287 79 295
18 83 148 564 282 1045 41 149 91 330 110 404 35 138 55 204 78 256 7 17 33
76 56 133 33 76 46 98 51 85 7 -15 173 -684 183 -735 14 -70 76 -281 138 -469
88 -269 147 -474 163 -569 3 -14 7 -36 9 -50 3 -14 8 -47 10 -73 3 -27 15 -90
26 -140 38 -172 41 -192 44 -297 1 -58 7 -123 13 -145 6 -22 14 -67 17 -100
13 -125 15 -141 21 -170 3 -16 14 -39 23 -49 15 -18 15 -19 -2 -13 -17 6 -17
5 1 -21 11 -15 29 -65 41 -112 82 -328 200 -574 503 -1045 111 -173 196 -267
393 -435 150 -128 176 -147 267 -189 179 -83 209 -96 374 -171 162 -73 256
-103 448 -141 28 -6 65 -13 81 -17 58 -12 199 -5 237 12 79 34 149 137 187
274 11 40 27 86 35 103 14 27 13 31 -2 36 -9 4 -145 64 -302 134 -157 71 -288
125 -291 121 -9 -10 -48 -122 -52 -149 -2 -12 -6 -26 -10 -29 -4 -4 -7 -15 -7
-24 0 -9 -13 -37 -29 -62 -51 -81 -102 -100 -163 -62 -21 13 -41 24 -44 24 -4
0 -48 31 -98 68 -50 38 -152 110 -227 160 l-136 91 -79 118 c-118 175 -128
195 -194 388 -26 77 -64 181 -84 232 -20 51 -36 96 -36 101 0 5 53 -26 118
-69 113 -75 288 -168 422 -224 36 -15 98 -43 138 -61 41 -19 77 -34 81 -34 4
0 25 -9 48 -19 73 -36 167 -64 208 -63 163 5 293 24 335 49 58 34 165 211 193
321 20 81 14 1206 -9 1502 -26 338 -77 522 -199 710 -72 110 -101 132 -331
245 -353 174 -473 193 -709 118 -44 -15 -111 -39 -149 -55 -37 -16 -69 -28
-71 -26 -3 4 48 256 76 365 30 122 91 357 94 361 1 2 60 -11 131 -28 70 -17
140 -33 155 -35 15 -3 98 -23 185 -45 87 -21 159 -38 161 -36 6 6 -37 36 -217
148 -225 140 -209 132 -297 153 -40 10 -73 18 -73 19 0 0 11 42 24 91 30 110
53 231 61 317 4 34 8 73 10 86 5 30 15 190 20 317 2 55 8 122 13 149 l10 48
-47 20 c-25 10 -55 23 -66 28 -11 4 -36 15 -55 23 -144 62 -330 135 -331 129
-3 -29 -9 -73 -15 -102 -4 -19 -8 -109 -9 -200 -3 -195 -10 -291 -31 -420 -16
-94 -78 -358 -87 -366 -3 -3 -49 7 -103 21 -134 35 -134 35 -134 27 0 -4 49
-37 108 -74 l108 -68 -63 -251 c-34 -138 -64 -266 -67 -283 -3 -18 -8 -39 -10
-47 -3 -8 -8 -27 -11 -44 -35 -201 -38 -221 -55 -340 -15 -104 -47 -297 -60
-355 -5 -25 -12 -56 -14 -70 -2 -14 -11 -59 -20 -100 -9 -41 -16 -77 -16 -80
-1 -6 -12 25 -85 250 -101 308 -114 356 -255 915 -76 303 -161 625 -189 717
-58 190 -137 418 -149 430 -4 4 -91 37 -192 72 -102 35 -212 73 -245 85 -32
12 -60 21 -61 21 -1 0 -2 -10 -2 -22 0 -21 -37 -142 -61 -198 -6 -14 -31 -81
-56 -150 -53 -144 -115 -289 -191 -445 -29 -60 -55 -121 -58 -135 -25 -127
-50 -245 -63 -295 -8 -33 -17 -71 -20 -85 -2 -14 -27 -113 -54 -220 -27 -107
-52 -203 -54 -212 -2 -9 -29 -108 -60 -220 -31 -112 -97 -347 -146 -523 -48
-176 -99 -356 -112 -399 l-24 -79 -15 29 c-27 54 -111 209 -145 268 -19 32
-96 183 -171 335 -128 257 -178 361 -265 551 -102 222 -134 291 -208 449 -33
68 -59 125 -59 127 0 11 -298 605 -359 718 -39 71 -71 131 -71 132 0 2 -18 33
-40 69 -22 36 -40 68 -40 70 0 7 -176 293 -223 362 -19 29 -37 57 -39 63 -1 5
-117 48 -256 95 -259 87 -262 88 -262 81z m5689 -2468 c68 -138 108 -296 126
-493 3 -38 8 -89 10 -112 18 -173 22 -557 13 -1208 l-3 -230 -42 -87 c-50
-106 -86 -152 -134 -174 -37 -16 -38 -16 -96 17 -32 19 -79 45 -105 59 -63 34
-422 269 -616 404 -86 60 -173 120 -192 133 -19 14 -38 36 -43 51 -46 161 -78
310 -72 341 4 20 9 46 11 59 3 12 13 59 24 105 10 45 21 93 24 107 3 14 21 95
41 180 68 290 87 375 88 394 1 10 8 21 17 23 8 2 28 23 44 45 78 109 216 228
353 304 123 69 345 157 431 170 20 3 39 8 41 10 16 15 36 -9 80 -98z"/>
</g>
</svg>
