<svg xmlns="http://www.w3.org/2000/svg" version="1.1" xmlns:xlink="http://www.w3.org/1999/xlink" xmlns:svgjs="http://svgjs.com/svgjs" width="512" height="512"><svg width="512" height="512" viewBox="0 0 135.46666 135.46666" version="1.1" id="SvgjsSvg1038" sodipodi:docname="wite2.svg" inkscape:version="1.1.2 (0a00cf5339, 2022-02-04, custom)" xmlns:inkscape="http://www.inkscape.org/namespaces/inkscape" xmlns:sodipodi="http://sodipodi.sourceforge.net/DTD/sodipodi-0.dtd" xmlns="http://www.w3.org/2000/svg" xmlns:svg="http://www.w3.org/2000/svg">
  <sodipodi:namedview id="SvgjsSodipodi:namedview1037" pagecolor="#505050" bordercolor="#eeeeee" borderopacity="1" inkscape:pageshadow="0" inkscape:pageopacity="0" inkscape:pagecheckerboard="0" inkscape:document-units="mm" showgrid="false" units="px" inkscape:zoom="0.44075041" inkscape:cx="-212.1382" inkscape:cy="647.7589" inkscape:window-width="1920" inkscape:window-height="1018" inkscape:window-x="0" inkscape:window-y="38" inkscape:window-maximized="1" inkscape:current-layer="layer1"></sodipodi:namedview>
  <defs id="SvgjsDefs1036">
    <inkscape:path-effect effect="powerstroke" id="SvgjsInkscape:path-effect1035" is_visible="true" lpeversion="1" offset_points="1.4554944,8.0546136" not_jump="true" sort_points="true" interpolator_type="CentripetalCatmullRom" interpolator_beta="0.75" start_linecap_type="round" linejoin_type="spiro" miter_limit="4" scale_width="1" end_linecap_type="round"></inkscape:path-effect>
    <inkscape:path-effect effect="simplify" id="SvgjsInkscape:path-effect1034" is_visible="true" lpeversion="1" steps="1" threshold="0.0061927945" smooth_angles="0" helper_size="0" simplify_individual_paths="false" simplify_just_coalesce="false" step="1"></inkscape:path-effect>
    <inkscape:path-effect effect="powerstroke" id="SvgjsInkscape:path-effect1033" is_visible="true" lpeversion="1" offset_points="0.5,0.5" not_jump="true" sort_points="true" interpolator_type="CentripetalCatmullRom" interpolator_beta="0.75" start_linecap_type="round" linejoin_type="spiro" miter_limit="4" scale_width="1" end_linecap_type="round"></inkscape:path-effect>
    <inkscape:path-effect effect="simplify" id="SvgjsInkscape:path-effect1032" is_visible="true" lpeversion="1" steps="1" threshold="0.0061927945" smooth_angles="0" helper_size="0" simplify_individual_paths="false" simplify_just_coalesce="false" step="1"></inkscape:path-effect>
    <inkscape:path-effect effect="powerstroke" id="SvgjsInkscape:path-effect1031" is_visible="true" lpeversion="1" offset_points="0.5,0.5" not_jump="true" sort_points="true" interpolator_type="CentripetalCatmullRom" interpolator_beta="0.75" start_linecap_type="round" linejoin_type="spiro" miter_limit="4" scale_width="1" end_linecap_type="round"></inkscape:path-effect>
    <inkscape:path-effect effect="simplify" id="SvgjsInkscape:path-effect1030" is_visible="true" lpeversion="1" steps="1" threshold="0.0061927945" smooth_angles="0" helper_size="0" simplify_individual_paths="false" simplify_just_coalesce="false" step="1"></inkscape:path-effect>
    <inkscape:path-effect effect="powerstroke" id="SvgjsInkscape:path-effect1029" is_visible="true" lpeversion="1" offset_points="1.1352538,8.0546136" not_jump="true" sort_points="true" interpolator_type="CentripetalCatmullRom" interpolator_beta="0.75" start_linecap_type="round" linejoin_type="spiro" miter_limit="4" scale_width="1" end_linecap_type="round"></inkscape:path-effect>
    <inkscape:path-effect effect="simplify" id="SvgjsInkscape:path-effect1028" is_visible="true" lpeversion="1" steps="1" threshold="0.0061927945" smooth_angles="0" helper_size="0" simplify_individual_paths="false" simplify_just_coalesce="false" step="1"></inkscape:path-effect>
    <inkscape:path-effect effect="powerstroke" id="SvgjsInkscape:path-effect1027" is_visible="true" lpeversion="1" offset_points="1.0043955,8.0546136" not_jump="true" sort_points="true" interpolator_type="CentripetalCatmullRom" interpolator_beta="0.75" start_linecap_type="round" linejoin_type="spiro" miter_limit="4" scale_width="1" end_linecap_type="round"></inkscape:path-effect>
    <inkscape:path-effect effect="simplify" id="SvgjsInkscape:path-effect1026" is_visible="true" lpeversion="1" steps="1" threshold="0.0061927945" smooth_angles="0" helper_size="0" simplify_individual_paths="false" simplify_just_coalesce="false" step="1"></inkscape:path-effect>
    <inkscape:path-effect effect="powerstroke" id="SvgjsInkscape:path-effect1025" is_visible="true" lpeversion="1" offset_points="0.4880208,8.0546136" not_jump="true" sort_points="true" interpolator_type="CentripetalCatmullRom" interpolator_beta="0.75" start_linecap_type="round" linejoin_type="spiro" miter_limit="4" scale_width="1" end_linecap_type="round"></inkscape:path-effect>
    <inkscape:path-effect effect="simplify" id="SvgjsInkscape:path-effect1024" is_visible="true" lpeversion="1" steps="1" threshold="0.0061927945" smooth_angles="0" helper_size="0" simplify_individual_paths="false" simplify_just_coalesce="false" step="1"></inkscape:path-effect>
    <inkscape:path-effect effect="powerstroke" id="SvgjsInkscape:path-effect1023" is_visible="true" lpeversion="1" offset_points="0.56856021,8.0546136" not_jump="true" sort_points="true" interpolator_type="CentripetalCatmullRom" interpolator_beta="0.75" start_linecap_type="round" linejoin_type="spiro" miter_limit="4" scale_width="1" end_linecap_type="round"></inkscape:path-effect>
    <inkscape:path-effect effect="simplify" id="SvgjsInkscape:path-effect1022" is_visible="true" lpeversion="1" steps="1" threshold="0.0061927945" smooth_angles="0" helper_size="0" simplify_individual_paths="false" simplify_just_coalesce="false" step="1"></inkscape:path-effect>
    <inkscape:path-effect effect="powerstroke" id="SvgjsInkscape:path-effect1021" is_visible="true" lpeversion="1" offset_points="1.9133867,8.0546136" not_jump="true" sort_points="true" interpolator_type="CentripetalCatmullRom" interpolator_beta="0.75" start_linecap_type="round" linejoin_type="spiro" miter_limit="4" scale_width="1" end_linecap_type="round"></inkscape:path-effect>
    <inkscape:path-effect effect="simplify" id="SvgjsInkscape:path-effect1020" is_visible="true" lpeversion="1" steps="1" threshold="0.0061927945" smooth_angles="0" helper_size="0" simplify_individual_paths="false" simplify_just_coalesce="false" step="1"></inkscape:path-effect>
    <inkscape:path-effect effect="skeletal" id="SvgjsInkscape:path-effect1019" is_visible="true" lpeversion="1" pattern="M 0,4.9921381 C 0,2.2364779 2.2364779,0 4.9921381,0 c 2.7556603,0 4.9921381,2.2364779 4.9921381,4.9921381 0,2.7556603 -2.2364778,4.9921381 -4.9921381,4.9921381 C 2.2364779,9.9842762 0,7.7477984 0,4.9921381 Z" copytype="single_stretched" prop_scale="1" scale_y_rel="false" spacing="0" normal_offset="0" tang_offset="0" prop_units="false" vertical_pattern="false" hide_knot="false" fuse_tolerance="0"></inkscape:path-effect>
    <inkscape:path-effect effect="bend_path" id="SvgjsInkscape:path-effect1018" is_visible="true" lpeversion="1" bendpath="m -701.14284,105.03411 c 10.28819,16.16229 26.26005,49.19136 46.57865,61.45296 0.49313,0.29759 17.68316,0 20.93055,0" prop_scale="1" scale_y_rel="false" vertical="false" hide_knot="false"></inkscape:path-effect>
    <inkscape:path-effect effect="powerstroke" id="SvgjsInkscape:path-effect1017" is_visible="true" lpeversion="1" offset_points="0,4.99214" not_jump="false" sort_points="true" interpolator_type="CubicBezierJohan" interpolator_beta="0.2" start_linecap_type="zerowidth" linejoin_type="extrp_arc" miter_limit="4" scale_width="1" end_linecap_type="zerowidth"></inkscape:path-effect>
    <inkscape:path-effect effect="powerstroke" id="SvgjsInkscape:path-effect1016" is_visible="true" lpeversion="1" offset_points="0,4.99214" not_jump="false" sort_points="true" interpolator_type="CubicBezierJohan" interpolator_beta="0.2" start_linecap_type="zerowidth" linejoin_type="extrp_arc" miter_limit="4" scale_width="1" end_linecap_type="zerowidth"></inkscape:path-effect>
    <inkscape:path-effect effect="powerstroke" id="SvgjsInkscape:path-effect1015" is_visible="true" lpeversion="1" offset_points="0,4.99214" not_jump="false" sort_points="true" interpolator_type="CubicBezierJohan" interpolator_beta="0.2" start_linecap_type="zerowidth" linejoin_type="extrp_arc" miter_limit="4" scale_width="1" end_linecap_type="zerowidth"></inkscape:path-effect>
    <inkscape:path-effect effect="powerstroke" id="SvgjsInkscape:path-effect1014" is_visible="true" lpeversion="1" offset_points="0,4.99214" not_jump="false" sort_points="true" interpolator_type="CubicBezierJohan" interpolator_beta="0.2" start_linecap_type="zerowidth" linejoin_type="extrp_arc" miter_limit="4" scale_width="1" end_linecap_type="zerowidth"></inkscape:path-effect>
  </defs>
  <g inkscape:label="Layer 1" inkscape:groupmode="layer" id="SvgjsG1013">
    <path style="opacity:1;fill:#000000;fill-opacity:1;stroke:#000000;stroke-width:0.264493;stroke-opacity:1" id="SvgjsPath1012" d="m 0.3576113,14.468879 c 4.2116656,5.656014 7.8044273,11.713256 11.0859937,17.907786 1.211037,2.286046 2.340579,4.611246 3.510868,6.916868 3.978472,8.039582 7.600495,16.23845 11.567245,24.283084 3.35774,6.809551 6.991899,13.485228 10.621198,20.162488 0.78176,1.42057 1.563522,2.841139 2.345283,4.261709 0,0 9.037499,3.104177 9.037499,3.104177 v 0 C 47.688268,89.667849 46.850838,88.230702 46.013409,86.79356 42.220779,80.119588 38.465745,73.431388 35.04882,66.568586 31.96581,60.376444 30.118068,56.127742 27.201289,49.860984 26.030593,47.345719 24.837824,44.840023 23.656092,42.329544 20.806718,36.56799 19.992961,34.757013 16.962036,29.243092 15.541521,26.658865 13.520615,23.217891 11.888903,20.645554 11.425408,19.91487 10.91151,19.214769 10.439275,18.489288 c -0.17295,-0.265697 -0.323574,-0.544265 -0.485359,-0.816399 0,0 -9.5963047,-3.20401 -9.5963047,-3.20401 z"></path>
    <path style="opacity:1;fill:#000000;fill-opacity:1;stroke:#000000;stroke-width:0.264493;stroke-opacity:1" id="SvgjsPath1011" d="m 48.727774,91.979216 c 1.194001,-5.450737 2.790602,-10.808398 4.238589,-16.19905 2.170343,-8.805737 4.702799,-17.522848 7.091343,-26.274782 0.691419,-2.304508 1.096027,-4.688473 1.938954,-6.949578 0.243976,-0.598422 0.480526,-1.199704 0.731931,-1.795273 0.35857,-0.849436 0.743402,-1.688507 1.097901,-2.539522 1.458648,-3.501667 2.816751,-7.044375 4.157432,-10.589135 0.197038,-0.535785 0.394075,-1.071571 0.591112,-1.607358 0,0 -9.094661,-3.961293 -9.094661,-3.961293 v 0 c -0.176621,0.540183 -0.353244,1.080366 -0.529866,1.620549 -1.749652,5.052422 -3.63176,10.079629 -6.151869,14.831648 -0.908178,2.297857 -1.024012,4.809842 -1.710843,7.16805 -0.674762,2.84786 -0.925776,3.963097 -1.696267,6.944947 -1.673009,6.474634 -3.567674,12.892659 -5.303446,19.351477 -1.491414,5.35133 -3.097503,10.672458 -4.599885,16.020918 0,0 9.239575,3.978402 9.239575,3.978402 z"></path>
    <path style="opacity:1;fill:#000000;fill-opacity:1;stroke:#000000;stroke-width:0.264493;stroke-opacity:1" id="SvgjsPath1010" d="m 59.306618,21.63166 c 0.151741,0.291218 0.318779,0.575509 0.45523,0.873655 0.471349,1.029893 1.000325,2.439235 1.374944,3.470163 0.919486,2.530368 1.697974,5.09033 2.451258,7.67011 1.411477,5.21953 2.665818,10.477286 3.954034,15.726031 0.189252,0.776814 0.375713,1.554265 0.56776,2.330445 0.309125,1.249379 0.769589,3.107283 1.139828,4.355836 0.672864,2.26908 1.471498,4.507789 2.21561,6.755783 1.039514,3.158881 1.973156,6.351385 2.617516,9.607802 0.148243,0.825578 0.285845,1.65585 0.324878,2.493878 0.0063,0.308585 -8.09e-4,0.296456 0.10399,0.765345 0.06161,0.275803 0.146944,0.546198 0.220416,0.819296 0.08727,0.364956 0.180235,0.728699 0.261828,1.094872 0.2761,1.239082 0.293807,1.422 0.517931,2.687762 0.279958,1.739158 0.479208,3.490043 0.59268,5.246455 0.02402,0.915733 0.192082,1.818263 0.285226,2.728882 0.07128,0.892919 0.115747,1.787204 0.333447,2.660383 0.11756,0.440667 0.06154,0.227443 0.168369,0.6396 0,0 9.468708,3.522391 9.468708,3.522391 v 0 c -0.105651,-0.427547 -0.04929,-0.208417 -0.169754,-0.657221 -0.06712,-0.228078 -0.161823,-0.44887 -0.21561,-0.680198 -0.14018,-0.602886 -0.120992,-1.234563 -0.203095,-1.844311 -0.08599,-0.903532 -0.204123,-1.800117 -0.276291,-2.701977 -0.153983,-1.796604 -0.403335,-3.584313 -0.667074,-5.368586 -0.224086,-1.380191 -0.212238,-1.368171 -0.46918,-2.716767 -0.05108,-0.268111 -0.301079,-1.555709 -0.402074,-1.916187 -0.03706,-0.132278 -0.117024,-0.251262 -0.152263,-0.384002 -0.01482,-0.05582 0.003,-0.115203 0.0045,-0.172803 -0.0059,-0.905561 -0.186371,-1.798276 -0.357369,-2.685741 -0.700959,-3.305904 -1.655901,-6.55336 -2.726266,-9.76545 -1.466636,-4.41768 -2.991378,-8.823451 -3.953794,-13.376643 -1.311459,-5.263013 -2.632478,-10.524475 -3.988998,-15.776649 -1.158234,-4.069279 -2.368834,-8.131301 -3.917063,-12.08176 0,0 -9.559275,-3.320394 -9.559275,-3.320394 z"></path>
    <path style="opacity:1;fill:#000000;fill-opacity:1;stroke:#000000;stroke-width:0.264493;stroke-opacity:1" id="SvgjsPath1009" d="m 86.502861,95.587497 c 0.01044,-0.22769 0.01081,-0.456013 0.03132,-0.68307 0.204775,-2.267175 0.618996,-4.536917 1.072464,-6.766313 0.565414,-2.779772 1.427468,-6.40132 2.058804,-9.12321 0.374152,-1.620601 0.758316,-3.239088 1.122456,-4.861802 0.683967,-3.047977 1.230965,-5.611479 1.801852,-8.665854 0.653158,-3.494532 1.181152,-7.010665 1.791655,-10.512254 1.24409,-6.091692 3.034469,-12.060094 4.553362,-18.089334 0.857128,-3.306862 1.150206,-6.702949 1.357366,-10.094023 0.0588,-1.020116 0.0906,-2.041713 0.0856,-3.063406 -0.0201,-0.403287 -0.0168,-0.796214 0.0569,-1.194013 0.11952,-0.477103 0.22822,-0.955583 0.29135,-1.44279 0.0298,-0.258092 0.0391,-0.517707 0.0495,-0.777012 0,0 -9.340159,-3.858305 -9.340159,-3.858305 v 0 c -0.0516,0.267713 -0.05905,0.530567 -0.06176,0.80286 -0.03181,0.454251 -0.115018,0.901199 -0.236989,1.341344 -0.119509,0.462888 -0.20805,0.927218 -0.152918,1.405722 0.04116,1.014782 0.06413,2.030256 0.04018,3.045863 -0.09203,3.354556 -0.372699,6.706824 -1.142549,9.988283 -1.412216,6.08133 -3.16837,12.084371 -4.456962,18.192932 -0.204702,1.150768 -0.424766,2.299102 -0.614104,3.452304 -0.787018,4.793462 -0.23174,2.082051 -1.09197,7.081476 -0.780757,4.53754 -1.744262,9.045084 -2.819488,13.525908 -1.366829,5.492538 -2.892494,10.963433 -3.781882,16.552634 0,0 9.386089,3.74206 9.386089,3.74206 z"></path>
    <path style="opacity:1;fill:#000000;fill-opacity:1;stroke:#000000;stroke-width:0.264493;stroke-opacity:1" id="SvgjsPath1008" d="m 92.040004,70.397266 c 1.808784,-2.656826 4.047479,-4.746239 6.857897,-6.430357 0.812179,-0.486693 1.674639,-0.890962 2.511949,-1.336442 2.26152,-0.981983 4.55478,-1.957841 6.99869,-2.441425 0.99796,-0.197472 2.18387,-0.328086 3.21274,-0.211177 0.44601,0.05068 0.87506,0.195096 1.31258,0.292643 4.79901,1.956427 -4.40017,-2.060406 -6.65388,-2.973953 -0.4193,-0.169968 0.7846,0.449969 1.13647,0.727575 1.29788,1.023971 2.00472,2.225752 2.81552,3.601424 1.1083,2.034557 1.71926,4.239335 2.13243,6.485699 0.53976,2.841981 0.7251,5.728199 0.85695,8.609539 0.19659,3.67229 0.28499,7.34769 0.24725,11.024403 -0.026,1.971808 -0.1028,3.942409 -0.17873,5.912857 -0.007,1.826346 0.0183,3.652464 0.0126,5.478841 -0.0105,1.226707 -0.004,0.640408 -0.0168,1.758897 0,0 9.32381,3.71715 9.32381,3.71715 v 0 c -0.0129,-1.12747 -0.007,-0.53691 -0.0167,-1.77169 -0.004,-1.81141 0.0118,-3.62267 0.0485,-5.433763 0.006,-1.99436 0.0214,-3.988683 0.0364,-5.982996 0.0193,-3.687169 -0.0396,-7.372396 -0.20257,-11.056674 -0.11262,-2.905363 -0.29026,-5.812939 -0.74707,-8.689928 -0.1062,-0.711657 -0.15572,-1.150562 -0.31723,-1.841892 -0.3998,-1.711385 -1.01668,-3.373142 -1.76916,-4.968581 -0.7536,-1.447704 -1.47161,-2.794305 -2.65043,-3.979029 -0.32812,-0.329765 -0.64227,-0.702072 -1.06579,-0.907758 -8.73042,-4.23992 -6.77508,-3.648782 -11.45734,-4.884865 -0.46738,-0.04333 -0.9326,-0.126609 -1.40212,-0.129995 -3.534059,-0.02548 -7.175991,1.776752 -10.305364,3.13219 -0.858434,0.471746 -1.741944,0.90353 -2.575305,1.415235 -1.490098,0.914961 -2.979931,2.032802 -4.250192,3.221066 -1.097977,1.027101 -2.013185,2.233404 -3.011432,3.34643 0,0 9.116175,4.316576 9.116175,4.316576 z"></path>
    <path style="opacity:1;fill:#000000;fill-opacity:1;stroke:#000000;stroke-width:0.224166;stroke-opacity:1" id="SvgjsPath1007" d="m 75.568005,83.120536 c 0.146911,1.724004 0.602694,3.418853 0.953211,5.118137 0.49383,2.291649 0.877008,4.605483 1.474661,6.879617 0.497049,1.89131 0.825978,2.783681 1.448112,4.662829 1.49762,3.912061 3.503483,7.678971 5.912348,11.228721 0.444165,0.65452 0.925451,1.28939 1.388177,1.93408 1.519587,2.07187 3.364099,3.93295 5.140228,5.83532 2.265953,2.42699 0.05366,0.0897 2.445951,2.60427 1.684103,1.7006 3.528733,3.29638 5.64376,4.59159 0.505477,0.30955 1.003467,0.63787 1.558847,0.87372 3.23817,1.37495 6.5388,2.63527 9.80822,3.95292 1.86993,0.52716 3.79713,0.92215 5.75307,1.10976 0.9893,0.0949 1.70288,0.1696 2.64443,-0.13941 0.35579,-0.11676 0.65733,-0.33311 0.98599,-0.49969 0.26509,-0.23087 0.53988,-0.45361 0.79527,-0.6926 0.59875,-0.56023 1.15798,-1.15161 1.74636,-1.72008 0.74735,-0.72196 1.50831,-1.43131 2.24203,-2.16383 0.43686,-0.42998 0.81339,-0.89872 1.17134,-1.37916 0,0 -8.12294,-3.41365 -8.12294,-3.41365 v 0 c -0.32309,0.45318 -0.66734,0.8933 -1.06847,1.29819 -0.71246,0.73523 -1.44698,1.45205 -2.18785,2.16573 -0.25661,0.24718 -1.43677,1.38191 -1.74757,1.64305 -0.21191,0.17802 -0.44932,0.33139 -0.67398,0.4971 -0.27774,0.0979 -0.54096,0.23614 -0.8332,0.29357 -0.78503,0.15432 -1.66677,0.0593 -2.44198,-0.034 -1.91512,-0.23087 -3.79672,-0.64809 -5.60329,-1.24894 2.00693,0.84828 3.98554,1.74943 6.02079,2.54482 0.55776,0.21797 -1.06868,-0.51918 -1.58106,-0.80974 -2.14752,-1.21789 -4.02399,-2.75983 -5.72464,-4.42031 -1.23237,-1.28948 -2.42817,-2.60411 -3.660858,-3.89327 -1.393351,-1.45718 -2.822098,-2.89238 -4.0303,-4.47566 -0.472746,-0.63389 -0.965976,-1.2565 -1.418241,-1.90163 -2.441916,-3.48322 -4.444437,-7.21424 -5.991613,-11.06368 -0.589176,-1.76831 -0.968938,-2.802122 -1.42806,-4.586155 -0.581035,-2.257748 -0.903867,-4.561212 -1.400617,-6.832899 -0.310175,-1.641422 -0.683898,-3.281646 -0.852795,-4.938962 0,0 -8.365331,-3.019571 -8.365331,-3.019571 z"></path>
    <path style="opacity:1;fill:#000000;fill-opacity:1;stroke:#000000;stroke-width:0.264493;stroke-opacity:1" id="SvgjsPath1006" d="m 92.497745,41.872082 c 4.140557,0.969359 8.287465,1.912688 12.433135,2.86172 1.61036,0.384047 3.21449,0.787706 4.80833,1.230555 0,0 -8.41848,-5.26996 -8.41848,-5.26996 v 0 c -1.566775,-0.394685 -3.138019,-0.771865 -4.714381,-1.129723 -4.20865,-0.948352 -8.424789,-1.88606 -12.579164,-3.037889 0,0 8.47056,5.345297 8.47056,5.345297 z"></path>
    <path style="opacity:1;fill:#000000;fill-opacity:1;stroke:#000000;stroke-width:0.264493;stroke-opacity:1" id="SvgjsPath1005" d="m 106.10034,11.540894 c 0.31594,-0.249974 0.62149,-0.512603 0.94778,-0.749922 1.16529,-0.8475362 3.00937,-2.0589069 4.16309,-2.818968 2.76165,-1.8193573 2.45238,-1.6079359 5.19742,-3.357611 0,0 -8.66999,-4.46182036 -8.66999,-4.46182036 v 0 c -3.24318,2.09275856 -1.88679,1.22266776 -5.22119,3.35281136 -0.32102,0.205084 -3.839592,2.4463396 -4.358492,2.7946582 -0.366348,0.2459125 -0.715309,0.5149865 -1.072962,0.7724799 0,0 9.014344,4.4683719 9.014344,4.4683719 z"></path>
    <path style="opacity:1;fill:#000000;fill-opacity:1;stroke:#000000;stroke-width:0.264493;stroke-opacity:1" id="SvgjsPath1004" d="m 76.759133,90.908134 c 1.757422,1.204599 3.389464,2.564003 5.002292,3.939891 0.359852,0.316767 0.720243,0.632965 1.079555,0.950299 0.947451,0.83677 1.188471,1.076404 2.192851,1.878921 1.149692,0.918624 2.355336,1.76723 3.559453,2.617485 2.475624,1.74958 4.91587,3.54349 7.460061,5.20047 3.974575,2.47729 8.372265,4.10112 12.683875,6.02183 0.81935,0.36499 1.68135,0.64681 2.53724,0.9196 0.17464,0.0468 0.34357,0.12269 0.52391,0.14056 0.18515,0.0183 0.37172,-0.02 0.55733,-0.0334 0.25708,-0.0185 0.51349,-0.0453 0.77067,-0.0625 0.98203,-0.0656 1.96265,-0.10197 2.94357,-0.18457 0.8619,-0.13532 1.80394,-0.18825 2.58002,-0.61954 0.35346,-0.19644 0.44259,-0.31853 0.72563,-0.59237 0.48149,-0.54354 0.95887,-1.09463 1.33898,-1.70922 0.46084,-0.87153 0.92727,-1.74334 1.29855,-2.6544 0.25036,-0.63057 0.46475,-1.27447 0.59878,-1.93748 0,0 -9.3262,-3.88789 -9.3262,-3.88789 v 0 c -0.0769,0.60712 -0.26484,1.19352 -0.48842,1.76465 -0.33401,0.86079 -0.77361,1.68078 -1.22831,2.4876 -0.34428,0.51976 -0.7558,1.006 -1.20199,1.44734 -0.84137,0.56944 -1.94719,0.57123 -2.9306,0.69649 -0.90017,0.0573 -1.02838,0.0729 -1.95255,0.10068 -0.4616,0.0138 -1.22612,0.0459 -1.71268,-0.0261 -0.12885,-0.019 -0.83064,-0.25719 -0.93227,-0.29076 -0.62155,-0.22288 -0.79266,-0.27785 -1.44275,-0.54202 -0.33042,-0.13427 -1.30984,-0.563 -0.986,-0.41462 14.69038,6.73105 8.26046,3.94047 5.21277,2.1668 -2.56908,-1.6077 -4.99791,-3.39958 -7.45786,-5.15628 -2.389459,-1.65923 -4.777206,-3.329923 -6.858178,-5.350768 -1.570294,-1.375417 -3.153608,-2.741297 -4.841498,-3.983213 0,0 -9.706231,-2.887494 -9.706231,-2.887494 z"></path>
    <path style="fill:#000000;stroke:#000000;stroke-width:0.326091" id="SvgjsPath1003" d="m 77.112165,92.329525 c 0.299168,0.406985 1.008402,1.362241 1.207394,1.689813 1.691258,2.784091 2.818115,5.876887 3.988964,8.879752 1.091632,2.63088 1.604741,5.47324 2.923618,8.02048 0.536805,1.03678 1.26843,2.10728 1.906614,3.08729 1.002664,1.40045 1.793972,2.95438 2.927285,4.27022 0.702003,0.81506 1.366887,1.42082 2.147983,2.17661 2.107096,1.99581 4.283592,3.93326 6.645508,5.65398 4.020989,1.82255 8.007219,3.71651 12.062989,5.46768 0.4516,0.19498 0.95804,0.2437 1.43811,0.36173 0.58892,0.14477 1.17766,0.29038 1.76881,0.42667 0.53387,0.1231 2.88814,0.63998 3.48637,0.74327 0.48116,0.0831 0.9683,0.13079 1.45244,0.1962 1.57481,0.10805 3.2099,-0.0477 4.39797,-1.13942 0.19701,-0.18103 0.35803,-0.39457 0.53705,-0.59185 0.7461,-0.99851 1.31335,-2.11103 1.67226,-3.28697 0.19621,-0.70164 0.32435,-1.41668 0.56796,-2.10542 0.11652,-0.3003 0.28316,-0.57899 0.43652,-0.86283 0,0 -11.38255,-5.10369 -11.38255,-5.10369 v 0 c -0.17514,0.33302 -0.36153,0.66159 -0.5012,1.01031 -0.27103,0.71504 -0.42989,1.44794 -0.5987,2.18967 -0.25269,0.99884 -0.70963,1.95717 -1.37724,2.76698 -0.1377,0.1227 -0.25987,0.26347 -0.41312,0.36811 -1.08956,0.74394 -2.60555,0.51403 -3.83593,0.40329 -1.62379,-0.27775 -3.22896,-0.60636 -4.82205,-1.01936 -0.59503,-0.15425 -1.1903,-0.30994 -1.77542,-0.49554 -3.235877,-1.02643 -14.751211,-6.59421 8.84349,4.15763 -2.50351,-1.53869 -4.68124,-3.50887 -6.80572,-5.48538 -0.35754,-0.33713 -1.72764,-1.61938 -2.12275,-2.02612 -1.21711,-1.25293 -2.08644,-2.76452 -3.066622,-4.18174 -0.969821,-1.4397 -2.0361,-2.86043 -2.743579,-4.4427 -0.936813,-2.09513 -1.45206,-4.34844 -2.298496,-6.47406 -0.923224,-2.43189 -1.860941,-4.85106 -2.909692,-7.236915 -0.5248,-1.193889 -0.78371,-1.866348 -1.449623,-2.910769 -0.127007,-0.199198 -0.288776,-0.37628 -0.433167,-0.56442 0,0 -11.875476,-3.942501 -11.875476,-3.942501 z"></path>
    <path style="fill:#000000;stroke:#000000;stroke-width:0.264583" id="SvgjsPath1002" d="m 90.045845,115.91613 c 0.25876,0.38061 0.487751,0.76636 0.831405,1.08243 0.22423,0.20624 0.640575,0.50031 0.884473,0.67883 0.794994,0.56922 1.597938,1.12512 2.411863,1.66686 1.386676,0.88674 2.742956,1.81964 4.067476,2.79659 0.533008,0.38738 1.020018,0.83344 1.570668,1.19687 0.32698,0.21581 0.65294,0.40096 0.99077,0.59923 0.99741,0.50998 1.89581,1.16506 2.76155,1.86972 0.40781,0.33213 0.78694,0.69749 1.18725,1.03823 0.0986,0.084 0.1821,0.19224 0.29886,0.24826 3.08817,1.48171 6.20334,2.90647 9.30501,4.3597 0.83612,0.33121 1.65527,0.73008 2.52811,0.9584 0,0 -8.31201,-5.45985 -8.31201,-5.45985 v 0 c -0.81354,-0.32434 -1.63024,-0.64222 -2.41989,-1.0228 2.80608,1.31819 5.62076,2.61825 8.41826,3.95457 0.1023,0.0489 -0.22418,-0.0444 -0.32799,-0.09 -0.0855,-0.0375 -0.15702,-0.10142 -0.23273,-0.15616 -0.36291,-0.26241 -0.69883,-0.56039 -1.03147,-0.85936 -0.85246,-0.74547 -1.70551,-1.50849 -2.71047,-2.04551 -0.91608,-0.50061 -1.84674,-0.98185 -2.62564,-1.68952 -1.31637,-0.98065 -2.6532,-1.93603 -4.02591,-2.8359 -0.80956,-0.53927 -1.61903,-1.07666 -2.41036,-1.6421 -0.29644,-0.19833 -0.58789,-0.40422 -0.88785,-0.59717 -0.33452,-0.21518 -0.68442,-0.38481 -0.84612,-0.77276 0,0 -9.425255,-3.27858 -9.425255,-3.27858 z"></path>
    <path style="fill:#000000;stroke:#000000;stroke-width:0.264583" id="SvgjsPath1001" d="m 80.802953,91.859652 c 0.709903,0.788815 1.563438,1.410957 2.430018,2.013484 0.340793,0.236951 0.683884,0.47058 1.025826,0.705869 0.371581,0.258455 0.743162,0.516911 1.114745,0.775367 2.05667,1.45565 4.20115,2.779371 6.311903,4.153418 1.30443,0.85842 2.563225,1.78338 3.892817,2.60362 0.653502,0.40316 1.243722,0.73506 1.907992,1.11619 1.143445,0.62932 2.256743,1.30681 3.320906,2.06204 0.86699,0.68094 1.68769,1.41987 2.48165,2.18422 0.13174,0.12565 0.24886,0.26372 0.38207,0.38758 0,0 9.51797,2.96232 9.51797,2.96232 v 0 c -0.15594,-0.10144 -0.32357,-0.18258 -0.45699,-0.31629 -0.83145,-0.75768 -1.66323,-1.51486 -2.50155,-2.26504 -0.12413,-0.11402 -0.2427,-0.2344 -0.37239,-0.34205 -0.15359,-0.1275 -0.70468,-0.50819 -0.83598,-0.59594 -0.71247,-0.47618 -1.45581,-0.90153 -2.20312,-1.32017 -0.99671,-0.55891 -2.00936,-1.09569 -2.97677,-1.70503 -0.80502,-0.50707 -1.14111,-0.77143 -1.91975,-1.31371 -0.31175,-0.21712 -0.62612,-0.43044 -0.93918,-0.64566 -2.111449,-1.39722 -4.290451,-2.689919 -6.366216,-4.14101 -0.691108,-0.48414 -1.369785,-0.985912 -2.062602,-1.467605 -0.792152,-0.550756 -1.663427,-1.013428 -2.309662,-1.74744 0,0 -9.441687,-3.104163 -9.441687,-3.104163 z"></path>
    <path style="fill:#000000;stroke:#000000;stroke-width:0.264583" id="SvgjsPath1000" d="m 76.974506,76.796341 c 0.176231,0.631306 0.395176,1.251368 0.571926,1.882367 0.07495,0.267573 0.138208,0.538284 0.207311,0.807427 0.07983,0.356475 0.164021,0.712001 0.239493,1.069424 0.185656,0.879229 0.349518,1.762927 0.528969,2.643444 0.280098,1.374389 0.58852,2.742243 0.888346,4.112398 0.3757,1.839426 0.885931,3.645829 1.362758,5.460243 0.04623,0.18868 0.09217,0.377428 0.138694,0.566034 0.104857,0.425048 0.126955,0.558615 0.285462,0.977656 0.222213,0.587455 0.535191,1.136418 0.830048,1.688849 0.427972,0.84002 0.82636,1.698945 1.136179,2.590281 0,0 9.322972,3.428146 9.322972,3.428146 v 0 c -0.153974,-0.30204 -0.277424,-0.61671 -0.416795,-0.92585 -0.268436,-0.59539 -0.548537,-1.185456 -0.827421,-1.775996 -0.482442,-0.989954 -0.129154,-0.281694 -0.576686,-1.142992 -0.07671,-0.14764 -0.357211,-0.690062 -0.423029,-0.853638 -0.106746,-0.265298 -0.250857,-0.796849 -0.324027,-1.050973 -0.530919,-1.822336 -1.084279,-3.639166 -1.545588,-5.480809 -0.317407,-1.35944 -0.646657,-2.71698 -0.914323,-4.087416 -0.20297,-1.039191 -0.282903,-1.579803 -0.445312,-2.610064 -0.05576,-0.353703 -0.110355,-0.707591 -0.165532,-1.061384 -0.07183,-0.432887 -0.156284,-0.996355 -0.25855,-1.435888 -0.09429,-0.40525 -0.252349,-0.796965 -0.307407,-1.211583 0,0 -9.307488,-3.589676 -9.307488,-3.589676 z"></path>
  </g>
</svg><style>@media (prefers-color-scheme: light) { :root { filter: none; } }
@media (prefers-color-scheme: dark) { :root { filter: invert(100%); } }
</style></svg>