<?xml version="1.0" standalone="no"?>
<!DOCTYPE svg PUBLIC "-//W3C//DTD SVG 20010904//EN"
 "http://www.w3.org/TR/2001/REC-SVG-20010904/DTD/svg10.dtd">
<svg version="1.0" xmlns="http://www.w3.org/2000/svg"
 width="512.000000pt" height="512.000000pt" viewBox="0 0 512.000000 512.000000"
 preserveAspectRatio="xMidYMid meet">
<metadata>
Created by potrace 1.14, written by Peter Selinger 2001-2017
</metadata>
<g transform="translate(0.000000,512.000000) scale(0.100000,-0.100000)"
fill="#000000" stroke="none">
<path d="M3972 5091 c-53 -20 -85 -39 -116 -72 -57 -59 -187 -221 -181 -227 2
-2 34 6 71 19 53 19 71 31 89 60 32 49 112 144 170 202 27 26 46 47 44 46 -2
0 -37 -13 -77 -28z"/>
<path d="M525 4966 c-90 -29 -190 -95 -290 -193 -95 -93 -226 -235 -221 -240
2 -2 34 8 72 23 53 21 80 40 114 78 93 106 249 256 265 256 62 0 128 -118 169
-300 13 -62 19 -97 33 -220 3 -30 6 -455 7 -945 2 -792 4 -897 19 -956 22 -92
43 -141 98 -235 82 -140 159 -199 270 -208 52 -5 133 6 174 24 11 4 45 18 75
30 74 30 230 112 288 152 226 153 438 408 574 688 29 60 55 110 59 110 3 0 5
-10 5 -22 1 -32 14 -226 19 -268 2 -19 6 -71 10 -115 3 -44 8 -98 10 -120 3
-22 7 -65 10 -95 13 -143 17 -181 30 -262 23 -137 46 -186 122 -262 43 -43 61
-66 50 -66 -9 0 -17 -6 -18 -12 -1 -7 -3 -35 -5 -63 -2 -27 -10 -83 -17 -122
-14 -69 -15 -229 -3 -283 3 -14 13 -61 21 -105 21 -119 24 -128 40 -174 32
-92 202 -323 296 -403 181 -153 470 -285 709 -323 25 -4 54 -9 65 -11 59 -12
91 -16 235 -34 163 -20 758 3 930 35 9 2 43 6 75 10 33 4 68 9 78 11 16 3 137
73 137 80 0 4 -84 -5 -145 -16 -44 -8 -91 -15 -190 -26 -108 -12 -271 -19
-475 -19 -264 0 -407 11 -555 42 -11 2 -45 8 -75 14 -91 18 -283 85 -379 132
-174 87 -302 188 -405 321 -138 177 -161 228 -202 443 -33 174 -34 295 -3 415
l9 36 168 -73 c395 -173 506 -226 635 -303 143 -86 236 -124 352 -142 39 -6
81 -13 94 -15 14 -2 51 -7 84 -10 32 -4 67 -8 77 -10 55 -11 252 -19 455 -20
l230 0 67 33 c88 43 135 92 154 162 9 30 18 64 21 74 4 15 1 18 -16 13 -12 -3
-19 -1 -15 4 3 5 7 17 9 26 3 10 18 61 34 114 31 101 76 293 86 369 3 25 8 52
10 60 2 8 7 40 11 70 4 30 9 71 11 90 3 19 6 118 8 220 3 163 1 198 -20 295
-38 181 -93 292 -194 390 -131 127 -271 164 -470 123 -192 -39 -398 -134 -633
-291 -129 -86 -259 -180 -255 -184 2 -1 33 9 69 22 44 16 111 56 195 116 196
142 287 193 399 228 219 68 344 62 480 -24 135 -86 218 -219 267 -430 17 -73
21 -124 21 -275 1 -216 -6 -292 -50 -525 -28 -149 -59 -261 -114 -423 l-39
-114 24 6 c24 6 24 5 13 -21 -23 -54 -14 -52 -261 -48 -128 3 -248 6 -267 9
-19 2 -69 7 -110 10 -41 4 -82 9 -90 11 -8 2 -37 6 -65 10 -89 11 -119 16
-180 31 -69 17 -196 77 -271 127 -83 55 -155 94 -234 125 -41 17 -156 67 -255
112 -99 45 -219 98 -267 118 -48 20 -88 40 -88 43 0 4 50 32 111 63 273 138
467 364 667 778 125 258 184 435 228 688 2 14 9 48 14 75 5 28 12 72 15 98 4
27 8 56 10 65 1 10 6 49 11 87 4 39 8 73 10 78 1 4 2 20 3 36 l1 30 303 1
c166 0 320 2 342 5 22 2 81 6 130 10 50 3 101 7 115 10 14 2 52 7 85 10 47 5
73 15 120 46 33 21 56 39 50 39 -5 0 -39 -5 -75 -10 -68 -9 -137 -16 -274 -26
-44 -4 -238 -7 -431 -7 l-350 0 1 39 c0 22 4 86 8 144 13 211 18 510 8 510
-15 0 -116 -42 -128 -54 -8 -7 -14 -104 -18 -301 -5 -276 -8 -341 -17 -349 -2
-2 -48 -11 -101 -19 -80 -14 -107 -23 -160 -57 -71 -45 -69 -46 57 -26 114 19
200 23 200 11 0 -19 -15 -150 -19 -170 -2 -11 -7 -45 -10 -76 -4 -31 -8 -65
-10 -75 -2 -11 -7 -39 -11 -64 -3 -25 -9 -58 -11 -75 -22 -137 -80 -361 -124
-475 -162 -422 -408 -785 -634 -935 -68 -45 -92 -53 -146 -49 -38 3 -50 9 -77
41 -18 21 -39 50 -45 65 -7 15 -19 27 -27 25 -18 -3 -36 49 -55 164 -22 137
-22 132 -51 454 -3 30 -7 79 -10 108 -3 28 -7 81 -10 117 -2 36 -7 106 -11
155 -9 126 -11 352 -3 400 3 22 20 105 37 185 17 80 33 161 36 180 10 64 35
254 41 310 8 86 18 549 11 566 -5 13 -11 11 -38 -9 -18 -14 -48 -28 -65 -32
-40 -8 -40 -9 -48 -71 -4 -27 -8 -60 -10 -74 -2 -14 -7 -65 -11 -115 -3 -49
-8 -98 -9 -107 -2 -9 -7 -49 -10 -90 -4 -40 -9 -84 -10 -98 -7 -73 -17 -164
-25 -235 -5 -44 -12 -107 -15 -140 -3 -33 -8 -73 -10 -90 -2 -16 -7 -77 -10
-135 -10 -163 -91 -415 -212 -654 -114 -226 -303 -461 -482 -600 -40 -30 -65
-56 -58 -59 7 -3 4 -7 -8 -12 -11 -4 -42 -16 -70 -26 -167 -67 -298 -56 -383
32 -93 94 -175 264 -198 409 -4 25 -9 441 -10 925 -2 484 -5 896 -8 915 -2 19
-7 58 -10 86 -5 45 -13 91 -31 174 -12 58 -39 131 -69 186 -50 90 -96 114
-171 90z"/>
</g>
</svg>
